<mxfile host="app.diagrams.net" agent="Mozilla/5.0 (Windows NT 10.0; Win64; x64) AppleWebKit/537.36 (KHTML, like Gecko) Chrome/139.0.0.0 Safari/537.36" version="28.1.2">
  <diagram name="Use Case Diagram" id="0">
    <mxGraphModel dx="1042" dy="608" grid="1" gridSize="10" guides="1" tooltips="1" connect="1" arrows="1" fold="1" page="1" pageScale="1" pageWidth="827" pageHeight="1169" math="0" shadow="0">
      <root>
        <mxCell id="0" />
        <mxCell id="1" parent="0" />
        <mxCell id="2" value="Teacher" style="shape=umlActor" parent="1" vertex="1">
          <mxGeometry x="50" y="100" width="60" height="80" as="geometry" />
        </mxCell>
        <mxCell id="3" value="Student" style="shape=umlActor" parent="1" vertex="1">
          <mxGeometry x="590" y="100" width="60" height="80" as="geometry" />
        </mxCell>
        <mxCell id="4" value="OCR Engine" style="shape=umlActor" parent="1" vertex="1">
          <mxGeometry x="50" y="390" width="60" height="80" as="geometry" />
        </mxCell>
        <mxCell id="5" value="Evaluation Model" style="shape=umlActor" parent="1" vertex="1">
          <mxGeometry x="580" y="390" width="80" height="80" as="geometry" />
        </mxCell>
        <mxCell id="6" value="Upload Answer Key with Questions" style="ellipse" parent="1" vertex="1">
          <mxGeometry x="250" y="50" width="180" height="40" as="geometry" />
        </mxCell>
        <mxCell id="7" value="Upload Student Answer Sheets" style="ellipse" parent="1" vertex="1">
          <mxGeometry x="250" y="120" width="180" height="40" as="geometry" />
        </mxCell>
        <mxCell id="8" value="View Evaluation Reports" style="ellipse" parent="1" vertex="1">
          <mxGeometry x="250" y="190" width="180" height="40" as="geometry" />
        </mxCell>
        <mxCell id="9" value="Override Grades / Feedback" style="ellipse" parent="1" vertex="1">
          <mxGeometry x="250" y="260" width="180" height="40" as="geometry" />
        </mxCell>
        <mxCell id="10" value="Extract Text from Answer Sheets" style="ellipse" parent="1" vertex="1">
          <mxGeometry x="250" y="340" width="180" height="40" as="geometry" />
        </mxCell>
        <mxCell id="11" value="Compare Answers with Key" style="ellipse" parent="1" vertex="1">
          <mxGeometry x="250" y="420" width="180" height="40" as="geometry" />
        </mxCell>
        <mxCell id="12" value="Evaluate on Parameters" style="ellipse" parent="1" vertex="1">
          <mxGeometry x="250" y="490" width="180" height="40" as="geometry" />
        </mxCell>
        <mxCell id="13" value="Generate Scores &amp; Comments" style="ellipse" parent="1" vertex="1">
          <mxGeometry x="250" y="560" width="180" height="40" as="geometry" />
        </mxCell>
        <mxCell id="14" value="View Results &amp; Feedback" style="ellipse" parent="1" vertex="1">
          <mxGeometry x="250" y="630" width="180" height="40" as="geometry" />
        </mxCell>
        <mxCell id="15" parent="1" source="2" target="6" edge="1">
          <mxGeometry relative="1" as="geometry" />
        </mxCell>
        <mxCell id="16" parent="1" source="2" target="7" edge="1">
          <mxGeometry relative="1" as="geometry" />
        </mxCell>
        <mxCell id="17" parent="1" source="2" target="8" edge="1">
          <mxGeometry relative="1" as="geometry" />
        </mxCell>
        <mxCell id="18" parent="1" source="2" target="9" edge="1">
          <mxGeometry relative="1" as="geometry" />
        </mxCell>
        <mxCell id="19" parent="1" source="7" target="10" edge="1">
          <mxGeometry relative="1" as="geometry" />
        </mxCell>
        <mxCell id="20" parent="1" source="4" target="10" edge="1">
          <mxGeometry relative="1" as="geometry" />
        </mxCell>
        <mxCell id="21" parent="1" source="10" target="11" edge="1">
          <mxGeometry relative="1" as="geometry" />
        </mxCell>
        <mxCell id="22" parent="1" source="5" target="11" edge="1">
          <mxGeometry relative="1" as="geometry" />
        </mxCell>
        <mxCell id="23" parent="1" source="5" target="12" edge="1">
          <mxGeometry relative="1" as="geometry" />
        </mxCell>
        <mxCell id="24" parent="1" source="5" target="13" edge="1">
          <mxGeometry relative="1" as="geometry" />
        </mxCell>
        <mxCell id="25" parent="1" source="13" target="14" edge="1">
          <mxGeometry relative="1" as="geometry" />
        </mxCell>
        <mxCell id="26" parent="1" source="3" target="14" edge="1">
          <mxGeometry relative="1" as="geometry" />
        </mxCell>
      </root>
    </mxGraphModel>
  </diagram>
</mxfile>
